<?xml version="1.0" encoding="UTF-8" ?>
<!DOCTYPE svg PUBLIC "-//W3C//DTD SVG 1.1//EN" "http://www.w3.org/Graphics/SVG/1.1/DTD/svg11.dtd">
<svg width="256pt" height="256pt" viewBox="0 0 256 256" version="1.1" xmlns="http://www.w3.org/2000/svg">
<g id="#ffffffff">
</g>
<g id="#000000ff">
<path fill="#323232" opacity="1.00" d=" M 34.51 75.76 C 59.20 58.56 83.82 41.24 108.74 24.38 C 109.13 25.05 109.92 26.38 110.32 27.05 C 110.36 71.28 110.25 115.52 110.41 159.75 C 128.72 146.65 147.24 133.82 165.40 120.52 C 169.65 117.69 171.26 111.25 167.80 107.21 C 164.26 103.35 158.61 103.21 153.75 103.06 C 153.71 101.86 153.68 100.67 153.65 99.48 C 172.93 99.44 192.22 99.47 211.50 99.47 C 211.47 100.35 211.41 102.10 211.38 102.98 C 204.99 103.68 199.10 106.49 193.57 109.61 C 182.90 115.76 172.68 122.64 162.62 129.74 C 137.53 147.40 112.50 165.15 87.44 182.86 C 87.94 183.26 88.44 183.66 88.95 184.06 L 89.55 182.68 C 96.32 179.20 103.39 176.33 110.23 172.99 C 110.32 181.30 110.17 189.62 110.50 197.93 C 110.76 203.08 111.68 208.69 115.39 212.56 C 119.77 217.33 126.41 218.84 132.53 219.95 C 132.56 221.20 132.60 222.45 132.63 223.70 C 109.38 223.66 86.13 223.79 62.88 223.63 C 62.84 222.57 62.81 221.50 62.77 220.44 C 68.41 218.78 74.90 218.62 79.40 214.34 C 83.77 209.73 85.45 203.23 85.77 197.03 C 86.39 190.69 86.27 184.32 86.42 177.97 C 86.39 133.74 86.45 89.51 86.38 45.28 C 78.14 50.98 69.88 56.70 62.10 63.03 C 56.32 68.14 50.27 74.12 49.05 82.10 C 47.90 87.83 49.28 93.63 50.97 99.11 C 50.01 99.45 49.05 99.78 48.09 100.12 C 43.76 91.90 39.35 83.70 34.51 75.76 Z" />
<path fill="#323232" opacity="1.00" d=" M 127.64 165.07 C 134.55 161.95 141.52 158.94 148.26 155.46 C 164.72 174.03 180.58 193.24 199.04 209.90 C 205.52 215.58 213.60 219.39 222.18 220.38 C 222.19 221.23 222.20 222.93 222.21 223.78 C 202.83 224.02 183.40 223.67 164.00 223.86 C 160.18 223.89 156.36 223.84 152.55 223.88 C 152.52 222.99 152.48 221.22 152.46 220.33 C 156.66 219.46 161.90 219.53 164.50 215.48 C 167.18 211.43 164.66 206.45 161.82 203.24 C 150.53 190.42 138.92 177.89 127.64 165.07 Z" />
</g>
</svg>
